<svg id="Layer_1" data-name="Layer 1" xmlns="http://www.w3.org/2000/svg" viewBox="0 0 30 30"><defs><style>.cls-1{fill:#fff;}</style></defs><path class="cls-1" d="M25.19,9.11a7.82,7.82,0,0,0-2.13-1.8V5.05a.47.47,0,0,0-.46-.46,2.41,2.41,0,0,0-1.47.5V4.43A.46.46,0,0,0,20.66,4a2.39,2.39,0,0,0-2.4,2.37V7.55A2.29,2.29,0,0,0,17.8,9c0,.3,0,.63,0,1l0,.52a1.41,1.41,0,0,0,0,.2c0,.16,0,.33,0,.49a1.28,1.28,0,0,1,0,.19v.36a2.28,2.28,0,0,1,0,.27s0,.06,0,.09a3.07,3.07,0,0,1-.72,1.79l-.06.06h0a2.94,2.94,0,0,1-1.22.71,13.45,13.45,0,0,0-1.45.55h0A4.78,4.78,0,0,0,12.3,17a6.82,6.82,0,0,0-.81,3q0,.57,0,1.14a2.48,2.48,0,0,1-.86,1.94C9.13,24.35,6,24.25,4.51,24h-.1a.45.45,0,0,0-.44.46.46.46,0,0,0,.27.42h.09l.08,0a17.77,17.77,0,0,0,5.56.79,10.53,10.53,0,0,0,5.21-1.43s.07.34.08.38h0A2,2,0,0,0,17.16,26h6.51a.46.46,0,0,0,.46-.46,2.78,2.78,0,0,0-.84-2,2.84,2.84,0,0,0-2-.83H19.74v-.15l0,0,0,0a5.18,5.18,0,0,0,2.11-3.28c.41-2.35-.57-4.59-.79-6.9a7,7,0,0,0,2.49.29,2.53,2.53,0,0,0,2.3-1.13C26.2,10.9,25.94,10,25.19,9.11Zm-4-2.48v0a.64.64,0,0,0,0-.07v0l0-.07v0l0-.07,0,0a.19.19,0,0,1,.05-.09v0l.05-.06,0,0,0,0,0,0s0,0,.05,0l0,0,.06,0v0l.08-.06,0,0,.06,0,0,0,.06,0,0,0,.07,0h0l.1,0V6.88h0l-.06,0-.05,0-.07,0h-.05l-.07,0-.05,0h-.07l-.05,0h-.11l-.08,0h-.16l-.08,0h0Zm-2-.29h0A1.44,1.44,0,0,1,20.2,5V6.59h-.35l-.12,0-.12,0h0l-.1,0h0l-.11,0h0l-.09,0h0V6.34Zm5.87,4.8c-.14.3-.73.53-1.51.59a5.7,5.7,0,0,1-1.7-.14,5.75,5.75,0,0,1-.71-.2c-.22-.08-.46-.21-.68-.06a.69.69,0,0,0-.25.52,3.37,3.37,0,0,0,0,.71,10.14,10.14,0,0,0,.27,1.65c0,.17.07.34.11.5s.06.26.08.39a12.6,12.6,0,0,1,.41,3.28,4.07,4.07,0,0,1-1.34-2.51.47.47,0,0,0-.52-.4.46.46,0,0,0-.41.52c0,.11.34,2.51,2.13,3.38a4,4,0,0,1-1.22,2.05,4.6,4.6,0,0,0-4.59-4.1.46.46,0,1,0,0,.92,3.67,3.67,0,0,1,3.68,3.64V23.2a.47.47,0,0,0,.47.46h2a1.92,1.92,0,0,1,1.36.56,1.86,1.86,0,0,1,.51.89h-6a1.06,1.06,0,0,1-.92-.53,1,1,0,0,1,0-1l.1-.17h0a.48.48,0,0,0-.14-.62.51.51,0,0,0-.4,0,1.07,1.07,0,0,0-.37.27l-.06.05a7.31,7.31,0,0,1-3,1.48,11.29,11.29,0,0,1-1.63.26c-.27,0-.54,0-.81.05H9.51a1.45,1.45,0,0,0-.36,0h0l.11,0a4.64,4.64,0,0,0,2.32-1.33,3.48,3.48,0,0,0,.8-2.29v-.3A7.37,7.37,0,0,1,13,17.63l0-.06v0a3,3,0,0,1,.34-.51,3.11,3.11,0,0,1,.35-.37l0,0a4.61,4.61,0,0,1,1-.65l.08,0a12.33,12.33,0,0,1,1.24-.45c2.94-1,2.76-3.77,2.64-5.63,0-.33,0-.64,0-.91a1.39,1.39,0,0,1,.36-1,1.23,1.23,0,0,1,.42-.33l.16-.07.23-.06a3.56,3.56,0,0,1,.74,0,4.64,4.64,0,0,1,1.51.37l.05,0,.16.07C24,8.78,25.34,10.55,25.07,11.14Z"/><path class="cls-1" d="M21.73,8.63A1.23,1.23,0,0,0,20.5,9.85a.47.47,0,0,0,.94,0,.29.29,0,1,1,.58,0,.47.47,0,0,0,.94,0A1.23,1.23,0,0,0,21.73,8.63Z"/></svg>