<?xml version="1.0" encoding="UTF-8"?>
<svg id="Layer_1" data-name="Layer 1" xmlns="http://www.w3.org/2000/svg" viewBox="0 0 998.09 1002.95">
  <defs>
    <style>
      .cls-1 {
        fill: #fff;
      }
    </style>
  </defs>
  <path class="cls-1" d="M324.04,126.48c13.81,0,25,11.19,25,25v25h300v-25c0-13.81,11.19-25,25-25s25,11.19,25,25V851.48c0,13.81-11.19,25-25,25s-25-11.19-25-25v-25H349.04v25c0,13.81-11.19,25-25,25s-25-11.19-25-25V151.48c0-13.81,11.19-25,25-25Zm25,650h300v-100H349.04v100Zm0-150h300v-100H349.04v100Zm0-150h300v-100H349.04v100Zm0-150h300v-100H349.04v100Z"/>
</svg>