<?xml version="1.0" encoding="UTF-8"?>
<svg id="Capa_1" data-name="Capa 1" xmlns="http://www.w3.org/2000/svg" viewBox="0 0 948 948">
  <defs>
    <style>
      .cls-1 {
        fill: #fff;
      }
    </style>
  </defs>
  <path class="cls-1" d="M778.98,261.36c-4.19-54.31-49.69-97.22-105.05-97.22H218.9c-58.12,0-105.4,47.28-105.4,105.4v408.92c0,58.11,47.28,105.4,105.4,105.4h510.2c58.12,0,105.4-47.28,105.4-105.4V354.15c0-40.08-22.5-74.97-55.52-92.79Zm-56.72,417.1c0,26.65-21.68,48.33-48.33,48.33H218.9c-26.65,0-48.33-21.68-48.33-48.33V269.54c0-26.65,21.68-48.33,48.33-48.33h455.03c26.65,0,48.33,21.68,48.33,48.33v408.92Z"/>
  <path class="cls-1" d="M228.15,378.04h1.19c8.21,0,14.87-6.65,14.87-14.87v-52.41l44.4,61.15c2.8,3.85,7.27,6.13,12.03,6.13h1.44c.05,0,.11-.01,.16-.01,.07,0,.15,.01,.22,.01h1.19c8.21,0,14.87-6.65,14.87-14.87v-97.66c0-8.21-6.66-14.87-14.87-14.87h-1.19c-8.21,0-14.87,6.66-14.87,14.87v52.41l-44.4-61.15c-2.8-3.85-7.27-6.13-12.03-6.13h-1.44c-.05,0-.11,.01-.16,.01-.08,0-.15-.01-.22-.01h-1.19c-8.21,0-14.87,6.66-14.87,14.87v97.66c0,8.21,6.65,14.87,14.87,14.87Z"/>
  <path class="cls-1" d="M409.54,348.31h-46.37v-20h37.85c8.21,0,14.87-6.65,14.87-14.86v-1.19c0-8.21-6.66-14.87-14.87-14.87h-37.85v-15.82h44.38c8.21,0,14.87-6.65,14.87-14.87v-1.19c0-8.21-6.65-14.87-14.87-14.87h-60.44c-8.21,0-14.87,6.66-14.87,14.87v97.66c0,8.21,6.66,14.87,14.87,14.87h62.43c8.21,0,14.87-6.65,14.87-14.87,0-8.21-6.66-14.87-14.87-14.87Z"/>
  <path class="cls-1" d="M476.14,378.04h.91s.04,0,.06,0c.02,0,.04,0,.06,0h.77c6.38,0,12.05-4.07,14.09-10.12l18.58-55.18,18.5,55.16c2.03,6.06,7.7,10.14,14.09,10.14h.91s.04,0,.06,0,.04,0,.06,0h.77c6.37,0,12.03-4.06,14.08-10.09l33.11-97.67c1.54-4.54,.8-9.54-2-13.44-2.79-3.9-7.29-6.21-12.08-6.21h-1.52c-6.41,0-12.1,4.11-14.11,10.19l-18.34,55.35-18.43-55.37c-2.02-6.08-7.7-10.17-14.11-10.17h-2.08c-6.41,0-12.1,4.11-14.11,10.19l-18.34,55.35-18.43-55.37c-2.02-6.08-7.7-10.17-14.11-10.17h-1.52c-4.79,0-9.29,2.31-12.08,6.21-2.79,3.89-3.54,8.9-2,13.44l33.11,97.67c2.04,6.03,7.71,10.09,14.08,10.09Z"/>
  <path class="cls-1" d="M641.16,378.04c32.96,0,47.71-19.18,47.71-38.08,.23-29.48-25.44-37.24-40.77-41.87-17.01-5.14-18.62-7.21-18.62-11.38,0-2.48,5.95-5.14,14.8-5.14,5.92,0,12.94,1.74,17.06,4.23,6.96,4.2,15.99,2.04,20.3-4.85l.55-.87c2.11-3.37,2.77-7.44,1.86-11.3-.91-3.87-3.34-7.2-6.73-9.27-9.1-5.54-21.44-8.85-33.03-8.85-31.59,0-45.73,18.11-45.73,36.06,0,28.71,24.3,36.07,40.38,40.94,17.51,5.3,19.05,7.41,19.01,12.21,0,4.99-8.71,7.27-16.79,7.27s-16.47-3.35-21.45-8.35c-2.79-2.8-6.57-4.37-10.52-4.38h-.01c-3.94,0-7.73,1.57-10.51,4.36l-.81,.81c-2.81,2.81-4.38,6.63-4.35,10.61,.03,3.98,1.65,7.78,4.5,10.56,10.97,10.68,27.51,17.31,43.16,17.31Z"/>
  <path class="cls-1" d="M382.05,421.37H240.64c-15.76,0-28.54,12.78-28.54,28.54s12.78,28.54,28.54,28.54h141.41c15.76,0,28.54-12.78,28.54-28.54,0-15.76-12.78-28.54-28.53-28.54Z"/>
  <path class="cls-1" d="M382.05,516.49H240.64c-15.76,0-28.54,12.78-28.54,28.54s12.78,28.54,28.54,28.54h141.41c15.76,0,28.54-12.78,28.54-28.54,0-15.76-12.78-28.54-28.53-28.54Z"/>
  <path class="cls-1" d="M382.05,611.61H240.64c-15.76,0-28.54,12.78-28.54,28.54s12.78,28.54,28.54,28.54h141.41c15.76,0,28.54-12.78,28.54-28.54,0-15.76-12.78-28.54-28.53-28.54Z"/>
  <path class="cls-1" d="M672.35,417.34h-218.07c-9.12,0-16.52,7.4-16.52,16.52v222.33c0,9.12,7.4,16.52,16.52,16.52h218.07c9.12,0,16.52-7.4,16.52-16.52v-222.33c0-9.12-7.4-16.52-16.52-16.52Z"/>
</svg>