<svg id="Layer_1" data-name="Layer 1" xmlns="http://www.w3.org/2000/svg" viewBox="0 0 1000 1000"><defs><style>.cls-1{fill:#fff;}</style></defs><path class="cls-1" d="M826.62,272.23c-17.91-24.38-42.8-52.89-70.13-80.22s-55.84-52.31-80.23-70.14c-41.54-30.44-61.64-34-73.16-34H203.82a64.47,64.47,0,0,0-64.41,64.42V847.68a64.47,64.47,0,0,0,64.41,64.42H796.18a64.47,64.47,0,0,0,64.41-64.42V345.48C860.59,333.87,857.06,313.77,826.62,272.23ZM720,228.42a712.22,712.22,0,0,1,58.44,65.51H654.56V170.06A697.07,697.07,0,0,1,720,228.42ZM809,847.6a13,13,0,0,1-12.86,12.87H203.82A13,13,0,0,1,191,847.6V152.32a13,13,0,0,1,12.86-12.87H603v180.3a25.74,25.74,0,0,0,25.74,25.73H809Z"/><path class="cls-1" d="M680.3,757.54H319.7a25.74,25.74,0,0,1,0-51.47H680.3a25.74,25.74,0,0,1,0,51.47Z"/><path class="cls-1" d="M680.3,654.52H319.7a25.73,25.73,0,1,1,0-51.46H680.3a25.73,25.73,0,0,1,0,51.46Z"/><path class="cls-1" d="M680.3,551.51H319.7a25.74,25.74,0,0,1,0-51.47H680.3a25.74,25.74,0,0,1,0,51.47Z"/></svg>